<svg width="19" height="19" viewBox="0 0 19 19" fill="none" xmlns="http://www.w3.org/2000/svg">
<path d="M9.24984 17.5365C4.6788 17.5365 0.963379 13.8211 0.963379 9.25008C0.963379 4.67904 4.6788 0.963623 9.24984 0.963623C13.8209 0.963623 17.5363 4.67904 17.5363 9.25008C17.5363 13.8211 13.8209 17.5365 9.24984 17.5365ZM9.24984 2.11987C5.31859 2.11987 2.11963 5.31883 2.11963 9.25008C2.11963 13.1813 5.31859 16.3803 9.24984 16.3803C13.1811 16.3803 16.38 13.1813 16.38 9.25008C16.38 5.31883 13.1811 2.11987 9.24984 2.11987Z" fill="#A4A9B2"/>
<path d="M7.06839 12.0097C6.92193 12.0097 6.77547 11.9557 6.65984 11.8401C6.4363 11.6165 6.4363 11.2465 6.65984 11.023L11.0228 6.66009C11.2463 6.43655 11.6163 6.43655 11.8398 6.66009C12.0634 6.88363 12.0634 7.25363 11.8398 7.47717L7.47693 11.8401C7.36901 11.9557 7.21484 12.0097 7.06839 12.0097Z" fill="#A4A9B2"/>
<path d="M11.4313 12.0097C11.2848 12.0097 11.1384 11.9557 11.0228 11.8401L6.65984 7.47717C6.4363 7.25363 6.4363 6.88363 6.65984 6.66009C6.88339 6.43655 7.25338 6.43655 7.47693 6.66009L11.8398 11.023C12.0634 11.2465 12.0634 11.6165 11.8398 11.8401C11.7242 11.9557 11.5778 12.0097 11.4313 12.0097Z" fill="#A4A9B2"/>
</svg>
