<svg width="19" height="19" viewBox="0 0 19 19" fill="none" xmlns="http://www.w3.org/2000/svg">
<path d="M7.29961 11.7784C7.15315 11.7784 7.00669 11.7244 6.89107 11.6088C6.25898 10.9767 5.91211 10.1365 5.91211 9.25006C5.91211 7.40777 7.40753 5.91235 9.24982 5.91235C10.1363 5.91235 10.9765 6.25923 11.6086 6.89131C11.7165 6.99923 11.7782 7.14569 11.7782 7.29985C11.7782 7.45402 11.7165 7.60048 11.6086 7.7084L7.70815 11.6088C7.59253 11.7244 7.44607 11.7784 7.29961 11.7784ZM9.24982 7.0686C8.04732 7.0686 7.06836 8.04756 7.06836 9.25006C7.06836 9.63548 7.16857 10.0055 7.35357 10.3292L10.329 7.35381C10.0052 7.16881 9.63523 7.0686 9.24982 7.0686Z" fill="#A4A9B2"/>
<path d="M4.31679 14.2679C4.18575 14.2679 4.047 14.2217 3.93908 14.1292C3.11429 13.4277 2.37429 12.5644 1.74221 11.5623C0.925124 10.2904 0.925124 8.21687 1.74221 6.93729C3.62304 3.99271 6.3595 2.29688 9.25012 2.29688C10.946 2.29688 12.6187 2.88271 14.0832 3.985C14.3376 4.17771 14.3916 4.54 14.1989 4.79437C14.0062 5.04875 13.6439 5.10271 13.3895 4.91C12.1253 3.95417 10.6916 3.45312 9.25012 3.45312C6.76033 3.45312 4.37846 4.94854 2.71346 7.56167C2.13533 8.46354 2.13533 10.036 2.71346 10.9379C3.29158 11.8398 3.9545 12.6183 4.68679 13.2504C4.92575 13.4585 4.95658 13.8208 4.74846 14.0675C4.64054 14.1985 4.47867 14.2679 4.31679 14.2679Z" fill="#A4A9B2"/>
<path d="M9.24998 16.2029C8.22477 16.2029 7.22269 15.9947 6.25914 15.5862C5.96623 15.4629 5.82748 15.1237 5.95081 14.8308C6.07414 14.5379 6.41331 14.3991 6.70623 14.5224C7.52331 14.8693 8.37894 15.0466 9.24227 15.0466C11.7321 15.0466 14.1139 13.5512 15.7789 10.9381C16.3571 10.0362 16.3571 8.4637 15.7789 7.56182C15.54 7.18411 15.2779 6.82182 15.0004 6.48266C14.8 6.23599 14.8385 5.8737 15.0852 5.66557C15.3319 5.46516 15.6941 5.49599 15.9023 5.75036C16.2029 6.12036 16.4958 6.5212 16.7579 6.93745C17.575 8.20932 17.575 10.2829 16.7579 11.5624C14.8771 14.507 12.1406 16.2029 9.24998 16.2029Z" fill="#A4A9B2"/>
<path d="M9.78193 12.5414C9.51213 12.5414 9.26547 12.3486 9.21151 12.0711C9.14984 11.7551 9.35797 11.4545 9.67401 11.4005C10.5219 11.2464 11.2311 10.5372 11.3853 9.68927C11.4469 9.37323 11.7476 9.17282 12.0636 9.22678C12.3796 9.28844 12.5878 9.58907 12.5261 9.90511C12.2794 11.2387 11.2157 12.2947 9.88984 12.5414C9.8513 12.5337 9.82047 12.5414 9.78193 12.5414Z" fill="#A4A9B2"/>
<path d="M1.54153 17.5365C1.39507 17.5365 1.24861 17.4825 1.13299 17.3669C0.909447 17.1433 0.909447 16.7733 1.13299 16.5498L6.89111 10.7917C7.11465 10.5681 7.48465 10.5681 7.7082 10.7917C7.93174 11.0152 7.93174 11.3852 7.7082 11.6088L1.95007 17.3669C1.83445 17.4825 1.68799 17.5365 1.54153 17.5365Z" fill="#A4A9B2"/>
<path d="M11.2002 7.87802C11.0538 7.87802 10.9073 7.82407 10.7917 7.70844C10.5681 7.4849 10.5681 7.1149 10.7917 6.89136L16.5498 1.13323C16.7733 0.909691 17.1433 0.909691 17.3669 1.13323C17.5904 1.35677 17.5904 1.72677 17.3669 1.95032L11.6088 7.70844C11.4931 7.82407 11.3467 7.87802 11.2002 7.87802Z" fill="#A4A9B2"/>
</svg>
